<svg width="64" height="64" viewBox="0 0 64 64" fill="none" xmlns="http://www.w3.org/2000/svg">
<path d="M61 18C61.2652 18 61.5196 17.8946 61.7071 17.7071C61.8946 17.5196 62 17.2652 62 17V15C62 14.7348 61.8946 14.4804 61.7071 14.2929C61.5196 14.1054 61.2652 14 61 14H58.92L58 2.91701C57.9791 2.66643 57.8646 2.43291 57.6793 2.26297C57.494 2.09303 57.2514 1.99914 57 2.00001H53C52.7486 1.99914 52.506 2.09303 52.3207 2.26297C52.1354 2.43291 52.0209 2.66643 52 2.91701L51.08 14H47.92L47 2.91701C46.9791 2.66643 46.8646 2.43291 46.6793 2.26297C46.494 2.09303 46.2514 1.99914 46 2.00001H42C41.7486 1.99914 41.506 2.09303 41.3207 2.26297C41.1354 2.43291 41.0209 2.66643 41 2.91701L40.08 14H36C35.7614 13.9997 35.5307 14.0853 35.35 14.241L28.35 20.241C28.2404 20.3348 28.1523 20.4512 28.0919 20.5822C28.0315 20.7132 28.0001 20.8557 28 21V24H21V23C21 22.7348 20.8946 22.4804 20.7071 22.2929C20.5196 22.1054 20.2652 22 20 22H18V20H25C25.7956 20 26.5587 19.6839 27.1213 19.1213C27.6839 18.5587 28 17.7957 28 17V13C27.9974 12.2596 27.7194 11.5467 27.22 11C27.7194 10.4533 27.9974 9.7404 28 9.00001V5.00001C28 4.20436 27.6839 3.44129 27.1213 2.87869C26.5587 2.31608 25.7956 2.00001 25 2.00001H19C18.7348 2.00001 18.4804 2.10536 18.2929 2.2929C18.1054 2.48044 18 2.73479 18 3.00001C18 3.26522 18.1054 3.51958 18.2929 3.70711C18.4804 3.89465 18.7348 4.00001 19 4.00001H25C25.2652 4.00001 25.5196 4.10536 25.7071 4.2929C25.8946 4.48044 26 4.73479 26 5.00001V9.00001C26 9.26522 25.8946 9.51958 25.7071 9.70711C25.5196 9.89465 25.2652 10 25 10H5C4.73478 10 4.48043 9.89465 4.29289 9.70711C4.10536 9.51958 4 9.26522 4 9.00001V5.00001C4 4.73479 4.10536 4.48044 4.29289 4.2929C4.48043 4.10536 4.73478 4.00001 5 4.00001H15C15.2652 4.00001 15.5196 3.89465 15.7071 3.70711C15.8946 3.51958 16 3.26522 16 3.00001C16 2.73479 15.8946 2.48044 15.7071 2.2929C15.5196 2.10536 15.2652 2.00001 15 2.00001H5C4.20435 2.00001 3.44129 2.31608 2.87868 2.87869C2.31607 3.44129 2 4.20436 2 5.00001V9.00001C2.0026 9.7404 2.28065 10.4533 2.78 11C2.28065 11.5467 2.0026 12.2596 2 13V17C2 17.7957 2.31607 18.5587 2.87868 19.1213C3.44129 19.6839 4.20435 20 5 20H7C7.26522 20 7.51957 19.8946 7.70711 19.7071C7.89464 19.5196 8 19.2652 8 19C8 18.7348 7.89464 18.4804 7.70711 18.2929C7.51957 18.1054 7.26522 18 7 18H5C4.73478 18 4.48043 17.8946 4.29289 17.7071C4.10536 17.5196 4 17.2652 4 17V13C4 12.7348 4.10536 12.4804 4.29289 12.2929C4.48043 12.1054 4.73478 12 5 12H25C25.2652 12 25.5196 12.1054 25.7071 12.2929C25.8946 12.4804 26 12.7348 26 13V17C26 17.2652 25.8946 17.5196 25.7071 17.7071C25.5196 17.8946 25.2652 18 25 18H11C10.7348 18 10.4804 18.1054 10.2929 18.2929C10.1054 18.4804 10 18.7348 10 19C10 19.2652 10.1054 19.5196 10.2929 19.7071C10.4804 19.8946 10.7348 20 11 20H12V22H10C9.73478 22 9.48043 22.1054 9.29289 22.2929C9.10536 22.4804 9 22.7348 9 23V24H3C2.73478 24 2.48043 24.1054 2.29289 24.2929C2.10536 24.4804 2 24.7348 2 25V45C2 45.2652 2.10536 45.5196 2.29289 45.7071C2.48043 45.8947 2.73478 46 3 46H11.051C11.2393 49.2722 12.3709 52.42 14.3092 55.0631C16.2474 57.7062 18.9094 59.7317 21.9737 60.8949C25.038 62.0581 28.3735 62.3093 31.5775 61.6181C34.7814 60.927 37.7168 59.323 40.029 57H48.32C49.258 58.372 52.138 59 55 59H55.132C55.2599 58.9987 55.3862 58.9715 55.5032 58.9199C55.6203 58.8684 55.7256 58.7936 55.8129 58.7C55.9002 58.6065 55.9675 58.4962 56.0108 58.3759C56.0542 58.2556 56.0726 58.1277 56.065 58C56.0506 57.7282 55.9318 57.4724 55.7333 57.2861C55.5349 57.0998 55.2722 56.9973 55 57C52.011 57 50.294 56.263 50 55.915V54.2C51.6039 54.7696 53.2985 55.0407 55 55C56.7015 55.0407 58.3961 54.7696 60 54.2V55.915C59.6502 56.201 59.2398 56.4035 58.8 56.507C58.6747 56.5464 58.5583 56.6101 58.4576 56.6945C58.3568 56.7788 58.2737 56.8822 58.2129 56.9987C58.1522 57.1152 58.1149 57.2425 58.1034 57.3734C58.0918 57.5043 58.1061 57.6362 58.1455 57.7615C58.1849 57.8869 58.2486 58.0032 58.333 58.1039C58.4173 58.2047 58.5207 58.2878 58.6372 58.3486C58.7537 58.4093 58.881 58.4466 59.0119 58.4582C59.1428 58.4697 59.2747 58.4554 59.4 58.416C61.548 57.741 62 56.73 62 56V44C62 42.127 59.126 41.191 56 41.029V36H61C61.2652 36 61.5196 35.8947 61.7071 35.7071C61.8946 35.5196 62 35.2652 62 35V21C62 20.7348 61.8946 20.4804 61.7071 20.2929C61.5196 20.1054 61.2652 20 61 20C60.7348 20 60.4804 20.1054 60.2929 20.2929C60.1054 20.4804 60 20.7348 60 21V22H58V19C58 18.7348 57.8946 18.4804 57.7071 18.2929C57.5196 18.1054 57.2652 18 57 18H45C44.7348 18 44.4804 18.1054 44.2929 18.2929C44.1054 18.4804 44 18.7348 44 19V23C44 23.2652 44.1054 23.5196 44.2929 23.7071C44.4804 23.8946 44.7348 24 45 24H60V26H45C44.7348 26 44.4804 26.1054 44.2929 26.2929C44.1054 26.4804 44 26.7348 44 27V31C44 31.2652 44.1054 31.5196 44.2929 31.7071C44.4804 31.8946 44.7348 32 45 32H60V34H45.479C45.2138 34 44.9594 34.1054 44.7719 34.2929C44.5844 34.4804 44.479 34.7348 44.479 35C44.479 35.2652 44.5844 35.5196 44.7719 35.7071C44.9594 35.8947 45.2138 36 45.479 36H54V41.029C50.874 41.191 48 42.129 48 44V55H41.717C43.2654 52.8902 44.3039 50.4504 44.751 47.8719C45.1981 45.2934 45.0417 42.6464 44.2941 40.1385C43.5464 37.6306 42.2279 35.33 40.4418 33.4172C38.6558 31.5045 36.4509 30.0315 34 29.114V26H40V30C40 30.2652 40.1054 30.5196 40.2929 30.7071C40.4804 30.8946 40.7348 31 41 31C41.2652 31 41.5196 30.8946 41.7071 30.7071C41.8946 30.5196 42 30.2652 42 30V25C42 24.7348 41.8946 24.4804 41.7071 24.2929C41.5196 24.1054 41.2652 24 41 24H33C32.7348 24 32.4804 24.1054 32.2929 24.2929C32.1054 24.4804 32 24.7348 32 25V28.5C31.3413 28.3377 30.6734 28.2151 30 28.133V21.46L36.37 16H60V17C60 17.2652 60.1054 17.5196 60.2929 17.7071C60.4804 17.8946 60.7348 18 61 18ZM46 20H48V22H46V20ZM50 20H52V22H50V20ZM54 20H56V22H54V20ZM46 28H48V30H46V28ZM50 28H52V30H50V28ZM54 28H56V30H54V28ZM58 30V28H60V30H58ZM55 43C57.779 43 59.441 43.633 59.9 44C59.43 44.37 57.763 45 55 45C52.237 45 50.57 44.372 50.1 44C50.559 43.633 52.221 43 55 43ZM55 47C56.7015 47.0407 58.3961 46.7696 60 46.2V47.918C59.706 48.263 57.989 49 55 49C52.011 49 50.294 48.263 50 47.915V46.2C51.6039 46.7696 53.2985 47.0407 55 47V47ZM50 51.915V50.2C51.6039 50.7696 53.2985 51.0407 55 51C56.7015 51.0407 58.3961 50.7696 60 50.2V51.918C59.706 52.263 57.989 53 55 53C52.011 53 50.294 52.263 50 51.915ZM11 24H13C13.2652 24 13.5196 23.8946 13.7071 23.7071C13.8946 23.5196 14 23.2652 14 23V20H16V23C16 23.2652 16.1054 23.5196 16.2929 23.7071C16.4804 23.8946 16.7348 24 17 24H19V26H11V24ZM17.586 31.582C17.4797 31.6616 17.3904 31.7616 17.3232 31.8762C17.256 31.9907 17.2122 32.1175 17.1946 32.2491C17.1769 32.3807 17.1856 32.5145 17.2202 32.6427C17.2548 32.771 17.3145 32.891 17.396 32.9959C17.4775 33.1007 17.5791 33.1883 17.6948 33.2535C17.8105 33.3187 17.938 33.3602 18.0699 33.3755C18.2018 33.3909 18.3354 33.3799 18.463 33.343C18.5906 33.3062 18.7096 33.2443 18.813 33.161C21.4342 31.1069 24.6698 29.9936 28 30C30.9667 30 33.8668 30.8797 36.3336 32.528C38.8003 34.1762 40.7229 36.5189 41.8582 39.2598C42.9935 42.0006 43.2906 45.0166 42.7118 47.9264C42.133 50.8361 40.7044 53.5088 38.6066 55.6066C36.5088 57.7044 33.8361 59.133 30.9264 59.7118C28.0166 60.2906 25.0006 59.9935 22.2597 58.8582C19.5189 57.7229 17.1762 55.8003 15.528 53.3336C13.8797 50.8668 13 47.9667 13 45C12.9936 41.6698 14.1069 38.4342 16.161 35.813C16.2443 35.7096 16.3062 35.5906 16.343 35.463C16.3799 35.3354 16.3909 35.2018 16.3755 35.0699C16.3602 34.938 16.3187 34.8105 16.2535 34.6948C16.1883 34.5791 16.1007 34.4775 15.9959 34.396C15.891 34.3146 15.771 34.2548 15.6427 34.2202C15.5145 34.1856 15.3807 34.1769 15.2491 34.1946C15.1175 34.2123 14.9907 34.256 14.8762 34.3232C14.7616 34.3904 14.6616 34.4797 14.582 34.586C12.4691 37.2894 11.2335 40.5743 11.041 44H4V26H9V27C9 27.2652 9.10536 27.5196 9.29289 27.7071C9.48043 27.8946 9.73478 28 10 28H20C20.2652 28 20.5196 27.8946 20.7071 27.7071C20.8946 27.5196 21 27.2652 21 27V26H28V28C24.2252 27.9926 20.5575 29.2541 17.586 31.582V31.582ZM53.479 9.29401L53.589 8.00001H56.411L56.521 9.29401L56.58 10H53.42L53.479 9.29401ZM56.08 4.00001L56.247 6.00001H53.753L53.92 4.00001H56.08ZM42.48 9.29401L42.589 8.00001H45.411L45.521 9.29401L45.58 10H42.42L42.48 9.29401ZM45.08 4.00001L45.247 6.00001H42.753L42.92 4.00001H45.08ZM42.087 14L42.254 12H45.746L45.913 14H42.087ZM53.087 14L53.254 12H56.746L56.913 14H53.087Z" fill="#ffffff" id="id_101"></path>
<path d="M35 20C34.7348 20 34.4804 20.1054 34.2929 20.2929C34.1054 20.4804 34 20.7348 34 21C34 21.2652 34.1054 21.5196 34.2929 21.7071C34.4804 21.8946 34.7348 22 35 22H41C41.2652 22 41.5196 21.8946 41.7071 21.7071C41.8946 21.5196 42 21.2652 42 21C42 20.7348 41.8946 20.4804 41.7071 20.2929C41.5196 20.1054 41.2652 20 41 20H35Z" fill="#ffffff" id="id_102"></path>
<path d="M7 8C7.55228 8 8 7.55228 8 7C8 6.44772 7.55228 6 7 6C6.44772 6 6 6.44772 6 7C6 7.55228 6.44772 8 7 8Z" fill="#ffffff" id="id_103"></path>
<path d="M23 8C23.2652 8 23.5196 7.89464 23.7071 7.70711C23.8946 7.51957 24 7.26522 24 7C24 6.73478 23.8946 6.48043 23.7071 6.29289C23.5196 6.10536 23.2652 6 23 6H19C18.7348 6 18.4804 6.10536 18.2929 6.29289C18.1054 6.48043 18 6.73478 18 7C18 7.26522 18.1054 7.51957 18.2929 7.70711C18.4804 7.89464 18.7348 8 19 8H23Z" fill="#ffffff" id="id_104"></path>
<path d="M11 8C11.5523 8 12 7.55228 12 7C12 6.44772 11.5523 6 11 6C10.4477 6 10 6.44772 10 7C10 7.55228 10.4477 8 11 8Z" fill="#ffffff" id="id_105"></path>
<path d="M15 8C15.5523 8 16 7.55228 16 7C16 6.44772 15.5523 6 15 6C14.4477 6 14 6.44772 14 7C14 7.55228 14.4477 8 15 8Z" fill="#ffffff" id="id_106"></path>
<path d="M7 16C7.55228 16 8 15.5523 8 15C8 14.4477 7.55228 14 7 14C6.44772 14 6 14.4477 6 15C6 15.5523 6.44772 16 7 16Z" fill="#ffffff" id="id_107"></path>
<path d="M23 16C23.2652 16 23.5196 15.8946 23.7071 15.7071C23.8946 15.5196 24 15.2652 24 15C24 14.7348 23.8946 14.4804 23.7071 14.2929C23.5196 14.1054 23.2652 14 23 14H19C18.7348 14 18.4804 14.1054 18.2929 14.2929C18.1054 14.4804 18 14.7348 18 15C18 15.2652 18.1054 15.5196 18.2929 15.7071C18.4804 15.8946 18.7348 16 19 16H23Z" fill="#ffffff" id="id_108"></path>
<path d="M11 16C11.5523 16 12 15.5523 12 15C12 14.4477 11.5523 14 11 14C10.4477 14 10 14.4477 10 15C10 15.5523 10.4477 16 11 16Z" fill="#ffffff" id="id_109"></path>
<path d="M15 16C15.5523 16 16 15.5523 16 15C16 14.4477 15.5523 14 15 14C14.4477 14 14 14.4477 14 15C14 15.5523 14.4477 16 15 16Z" fill="#ffffff" id="id_110"></path>
<path d="M28 51C27.4067 51 26.8266 51.1759 26.3333 51.5056C25.8399 51.8352 25.4554 52.3038 25.2284 52.852C25.0013 53.4001 24.9419 54.0033 25.0576 54.5853C25.1734 55.1672 25.4591 55.7018 25.8787 56.1213C26.2982 56.5409 26.8328 56.8266 27.4147 56.9424C27.9967 57.0581 28.5999 56.9987 29.1481 56.7716C29.6962 56.5446 30.1648 56.1601 30.4944 55.6667C30.8241 55.1734 31 54.5933 31 54C31 53.2044 30.6839 52.4413 30.1213 51.8787C29.5587 51.3161 28.7957 51 28 51V51ZM28 55C27.8022 55 27.6089 54.9414 27.4444 54.8315C27.28 54.7216 27.1518 54.5654 27.0761 54.3827C27.0004 54.2 26.9806 53.9989 27.0192 53.8049C27.0578 53.6109 27.153 53.4327 27.2929 53.2929C27.4327 53.153 27.6109 53.0578 27.8049 53.0192C27.9989 52.9806 28.2 53.0004 28.3827 53.0761C28.5654 53.1518 28.7216 53.28 28.8315 53.4444C28.9414 53.6089 29 53.8022 29 54C29 54.2652 28.8946 54.5196 28.7071 54.7071C28.5196 54.8946 28.2652 55 28 55Z" fill="#ffffff" id="id_111"></path>
<path d="M16.412 40.216L18.812 43.416C18.971 43.628 19.2076 43.7683 19.47 43.806C19.7328 43.8419 19.9992 43.7733 20.212 43.615C22.4556 41.9206 25.1904 41.0039 28.002 41.0039C30.8135 41.0039 33.5484 41.9206 35.792 43.615C35.9651 43.7448 36.1756 43.815 36.392 43.815C36.4388 43.8151 36.4856 43.8118 36.532 43.805C36.6621 43.7868 36.7874 43.7429 36.9005 43.676C37.0137 43.609 37.1124 43.5203 37.191 43.415L39.591 40.215C39.7501 40.0028 39.8184 39.7361 39.7809 39.4736C39.7434 39.211 39.6031 38.9741 39.391 38.815C36.1107 36.3381 32.1124 34.9981 28.002 34.9981C23.8916 34.9981 19.8933 36.3381 16.613 38.815C16.5077 38.8937 16.419 38.9924 16.3519 39.1055C16.2848 39.2185 16.2407 39.3437 16.222 39.4738C16.2033 39.6039 16.2105 39.7365 16.2431 39.8638C16.2757 39.9912 16.3331 40.1108 16.412 40.216ZM28 37C31.3361 36.9945 34.5984 37.9825 37.371 39.838L36.171 41.438C33.7421 39.8479 30.9021 39.001 27.999 39.001C25.0959 39.001 22.2559 39.8479 19.827 41.438L18.627 39.838C21.4003 37.9825 24.6632 36.9946 28 37V37Z" fill="#ffffff" id="id_112"></path>
<path d="M28 43C25.6197 42.9966 23.3038 43.7725 21.406 45.209C21.3009 45.2878 21.2124 45.3865 21.1455 45.4995C21.0786 45.6125 21.0346 45.7376 21.016 45.8676C20.9975 45.9976 21.0047 46.13 21.0373 46.2572C21.0699 46.3844 21.1272 46.504 21.206 46.609L23.606 49.809C23.6846 49.9144 23.7833 50.0031 23.8964 50.07C24.0095 50.137 24.1348 50.1808 24.265 50.199C24.5266 50.2315 24.7905 50.16 25 50C25.8685 49.3581 26.92 49.0116 28 49.0116C29.08 49.0116 30.1315 49.3581 31 50C31.1727 50.1306 31.3835 50.2008 31.6 50.2C31.8099 50.2 32.0144 50.134 32.1847 50.0113C32.355 49.8886 32.4823 49.7154 32.5487 49.5163C32.615 49.3171 32.6171 49.1022 32.5545 48.9019C32.4919 48.7015 32.3679 48.526 32.2 48.4C31.1226 47.6025 29.8407 47.1276 28.5037 47.031C27.1668 46.9343 25.8299 47.2198 24.649 47.854L23.441 46.245C24.9683 45.3395 26.7305 44.9089 28.5033 45.0081C30.2761 45.1073 31.9792 45.7318 33.396 46.802C33.6082 46.9612 33.8749 47.0295 34.1374 46.992C34.4 46.9545 34.6369 46.8142 34.796 46.602C34.9551 46.3899 35.0234 46.1232 34.9859 45.8606C34.9484 45.5981 34.8082 45.3612 34.596 45.202C32.6967 43.7676 30.3801 42.9942 28 43V43Z" fill="#ffffff" id="id_113"></path>
</svg>